<svg xmlns="http://www.w3.org/2000/svg" xml:space="preserve" viewBox="0 0 512 512"><circle cx="256" cy="256" r="256" style="fill:#b5f1f4"/><path d="M269.172 511.667C404.435 504.811 512 392.968 512 256c0-5.073-.164-10.109-.455-15.11L363.305 91.881l-55.586 116.426-158.894 183.494z" style="fill:#4cdbc4"/><path d="M347.551 398.222H164.45c-12.276 0-22.228-9.952-22.228-22.228V107.561c0-12.276 9.952-22.228 22.228-22.228h183.1c12.276 0 22.228 9.952 22.228 22.228v268.433c.002 12.276-9.951 22.228-22.227 22.228" style="fill:#324a5e"/><path d="M347.551 85.333h-92.124v312.889h92.124c12.276 0 22.228-9.952 22.228-22.228V107.561c.001-12.276-9.952-22.228-22.228-22.228" style="fill:#2b3b4e"/><path d="M151.411 105.589h209.161v256H151.411z" style="fill:#ffd15d"/><path d="M255.431 105.589h105.158v256H255.431z" style="fill:#f9b54c"/><circle cx="355.556" cy="241.778" r="99.556" style="fill:#c1321f"/><path d="M455.111 241.778c0-54.982-44.573-99.556-99.556-99.556v99.556z" style="fill:#fc6f58"/></svg>